<svg version="1.1" id="guy_dumais_logo" xmlns="http://www.w3.org/2000/svg" xmlns:xlink="http://www.w3.org/1999/xlink" x="0px" y="0px"
	 width="291.871px" height="61.662px" viewBox="0 0 291.871 61.662" enable-background="new 0 0 291.871 61.662"
	 xml:space="preserve">
<g>
	<g>
		<path fill="#1D1A1F" d="M91.976,31.021h2.845v8.088c-1.027,0.849-2.222,1.501-3.585,1.955c-1.362,0.454-2.785,0.682-4.266,0.682
			c-2.094,0-3.98-0.46-5.658-1.378c-1.679-0.918-2.996-2.182-3.955-3.791c-0.958-1.61-1.437-3.422-1.437-5.437
			s0.479-3.831,1.437-5.45c0.959-1.619,2.281-2.884,3.971-3.792c1.688-0.908,3.588-1.363,5.701-1.363
			c1.659,0,3.165,0.271,4.518,0.814c1.354,0.544,2.504,1.338,3.452,2.385l-1.837,1.837c-1.659-1.6-3.664-2.399-6.014-2.399
			c-1.58,0-2.997,0.341-4.252,1.022c-1.254,0.682-2.235,1.629-2.947,2.844c-0.71,1.215-1.065,2.582-1.065,4.103
			c0,1.501,0.355,2.858,1.065,4.073c0.712,1.215,1.693,2.168,2.947,2.858c1.255,0.692,2.662,1.037,4.223,1.037
			c1.855,0,3.475-0.445,4.857-1.333V31.021z"/>
		<path fill="#1D1A1F" d="M104.832,39.375c-1.54-1.58-2.312-3.851-2.312-6.813v-11.79h2.963v11.672c0,4.443,1.945,6.665,5.836,6.665
			c1.896,0,3.348-0.548,4.354-1.645c1.007-1.096,1.511-2.77,1.511-5.021V20.771h2.873v11.79c0,2.982-0.77,5.258-2.311,6.828
			c-1.54,1.569-3.692,2.355-6.457,2.355C108.524,41.745,106.372,40.955,104.832,39.375z"/>
		<path fill="#1D1A1F" d="M135.995,34.339v7.169h-2.933V34.28l-8.235-13.509h3.17l6.636,10.931l6.665-10.931h2.933L135.995,34.339z"
			/>
		<path fill="#1D1A1F" d="M159.634,20.771h8.739c2.192,0,4.137,0.435,5.836,1.304c1.698,0.869,3.017,2.088,3.954,3.658
			c0.938,1.57,1.408,3.372,1.408,5.406s-0.47,3.836-1.408,5.406c-0.938,1.57-2.256,2.789-3.954,3.658
			c-1.699,0.869-3.644,1.304-5.836,1.304h-8.739V20.771z M168.195,38.931c1.679,0,3.155-0.326,4.429-0.978
			c1.274-0.651,2.256-1.564,2.947-2.74c0.691-1.175,1.037-2.533,1.037-4.073s-0.346-2.897-1.037-4.073
			c-0.691-1.175-1.673-2.089-2.947-2.74c-1.273-0.651-2.75-0.978-4.429-0.978h-5.599v15.582H168.195z"/>
		<path fill="#1D1A1F" d="M188.457,39.375c-1.54-1.58-2.311-3.851-2.311-6.813v-11.79h2.962v11.672c0,4.443,1.945,6.665,5.836,6.665
			c1.896,0,3.348-0.548,4.354-1.645c1.008-1.096,1.511-2.77,1.511-5.021V20.771h2.874v11.79c0,2.982-0.771,5.258-2.312,6.828
			c-1.539,1.569-3.692,2.355-6.457,2.355C192.149,41.745,189.998,40.955,188.457,39.375z"/>
		<path fill="#1D1A1F" d="M231.204,41.508l-0.03-15.108l-7.494,12.59h-1.363l-7.494-12.501v15.02h-2.845V20.771h2.43l8.65,14.574
			l8.531-14.574h2.429l0.03,20.736H231.204z"/>
		<path fill="#1D1A1F" d="M255.702,36.323h-11.021l-2.281,5.185h-3.051l9.391-20.736h2.933l9.42,20.736h-3.11L255.702,36.323z
			 M254.665,33.954l-4.473-10.16l-4.474,10.16H254.665z"/>
		<path fill="#1D1A1F" d="M266.396,20.771h2.963v20.736h-2.963V20.771z"/>
		<path fill="#1D1A1F" d="M279.326,41.02c-1.451-0.484-2.592-1.111-3.422-1.881l1.097-2.312c0.789,0.711,1.802,1.289,3.036,1.733
			c1.233,0.444,2.503,0.667,3.807,0.667c1.718,0,3.001-0.292,3.851-0.875c0.85-0.582,1.274-1.357,1.274-2.324
			c0-0.712-0.233-1.289-0.696-1.734c-0.465-0.444-1.037-0.784-1.718-1.021c-0.683-0.237-1.646-0.504-2.889-0.8
			c-1.561-0.375-2.819-0.75-3.777-1.126c-0.958-0.375-1.777-0.952-2.458-1.732c-0.682-0.78-1.023-1.832-1.023-3.155
			c0-1.105,0.292-2.104,0.875-2.991c0.582-0.889,1.466-1.6,2.65-2.134c1.186-0.533,2.656-0.8,4.414-0.8
			c1.225,0,2.43,0.159,3.614,0.475c1.186,0.316,2.202,0.771,3.052,1.362l-0.979,2.37c-0.869-0.553-1.797-0.973-2.783-1.259
			c-0.988-0.286-1.955-0.431-2.904-0.431c-1.678,0-2.938,0.307-3.777,0.919c-0.839,0.612-1.259,1.402-1.259,2.369
			c0,0.712,0.237,1.289,0.712,1.734c0.474,0.444,1.061,0.789,1.762,1.036s1.654,0.509,2.859,0.784
			c1.561,0.377,2.814,0.751,3.762,1.126c0.948,0.376,1.763,0.948,2.444,1.719c0.681,0.771,1.021,1.808,1.021,3.111
			c0,1.086-0.296,2.078-0.889,2.977s-1.491,1.609-2.695,2.132c-1.205,0.524-2.687,0.786-4.443,0.786
			C282.283,41.745,280.778,41.503,279.326,41.02z"/>
	</g>
	<g>
		<polygon fill="#DD0000" points="30.706,0 0,30.579 21.534,52.018 23.847,38.901 15.521,30.579 27.41,18.693 		"/>
		<polygon fill="#DD0000" points="39.769,8.775 37.452,21.893 46.142,30.579 33.726,42.989 30.438,61.662 61.662,30.579 		"/>
	</g>
</g>
</svg>
